
Nokas.2010.720p.BRRip.XviD.AC3-RSB:


Plot:

The movie portrays Norway's most spectacular robbery, where 11 men occupied central Stavanger for twenty minutes and escaped with 57 million kroner (appx $10 million). A police officer was shot and killed.


Cast:

Frode Winther Gunnes	... 	Kjell Alrich Schumann
Tov Sletta	... 	David Toska
Geir Høiseth	... 	Erling Havnå
Morten Håland	... 	Erik Håland
Geir Høyseth	... 	Erling Havnå
Thomas Berhane	... 	Metkel Betew
Marit Synnøve Berg	... 	Beate
Morten Larsen	... 	Arne Sigve Klungland
Jeton Jajovski	... 	Jusuf Hani
André Eriksen	... 	Thomas Thendrup
Pål Christian Madsen Kvam	... 	Man in street (unconfirmed)
Lirik Sahiti	... 	Ikmet Kodzadziku


SOURCE: Nokas.2010.BluRay.720p.x264-SUG

AUDIO LANGUAGE: Norwegian


Format                           : AVI
Format/Info                      : Audio Video Interleave
Format profile                   : OpenDML
File size                        : 2.18 GiB
Duration                         : 1h 26mn
Overall bit rate                 : 3 585 Kbps
Writing application              : VirtualDubMod 1.5.10.3 | www.virtualdub-fr.org || (build 2550/release)
Writing library                  : VirtualDubMod build 2550/release

Video
ID                               : 0
Format                           : MPEG-4 Visual
Format profile                   : Advanced Simple@L5
Format settings, BVOP            : 1
Format settings, QPel            : No
Format settings, GMC             : No warppoints
Format settings, Matrix          : Default (H.263)
Codec ID                         : XVID
Codec ID/Hint                    : XviD
Duration                         : 1h 26mn
Bit rate                         : 3 381 Kbps
Width                            : 1 280 pixels
Height                           : 720 pixels
Display aspect ratio             : 16:9
Frame rate                       : 25.000 fps
Color space                      : YUV
Chroma subsampling               : 4:2:0
Bit depth                        : 8 bits
Scan type                        : Progressive
Compression mode                 : Lossy
Bits/(Pixel*Frame)               : 0.147
Stream size                      : 2.05 GiB (94%)
Writing library                  : XviD 1.2.1 (UTC 2008-12-04)

Audio
ID                               : 1
Format                           : AC-3
Format/Info                      : Audio Coding 3
Mode extension                   : CM (complete main)
Codec ID                         : 2000
Duration                         : 1h 26mn
Bit rate mode                    : Constant
Bit rate                         : 192 Kbps
Channel(s)                       : 6 channels
Channel positions                : Front: L C R, Side: L R, LFE
Sampling rate                    : 48.0 KHz
Bit depth                        : 16 bits
Compression mode                 : Lossy
Stream size                      : 119 MiB (5%)
Alignment                        : Split accross interleaves
Interleave, duration             : 40 ms (1.00 video frame)
Interleave, preload duration     : 500 ms


          EnJoY iT ! :)


